<?xml version="1.0" standalone="no"?>
<!DOCTYPE svg PUBLIC "-//W3C//DTD SVG 20010904//EN"
 "http://www.w3.org/TR/2001/REC-SVG-20010904/DTD/svg10.dtd">
<svg version="1.0" xmlns="http://www.w3.org/2000/svg"
 width="500.000000pt" height="500.000000pt" viewBox="0 0 500.000000 500.000000"
 preserveAspectRatio="xMidYMid meet">

<g transform="translate(0.000000,500.000000) scale(0.100000,-0.100000)"
fill="#000000" stroke="none">
<path d="M1500 3181 l0 -1821 68 25 c37 14 262 96 500 184 l432 158 498 -182
497 -182 3 1815 c1 999 0 1817 -2 1820 -3 2 -227 -179 -498 -402 -271 -223
-496 -405 -500 -403 -5 1 -227 182 -494 402 -267 220 -490 402 -495 403 -5 2
-9 -745 -9 -1817z m562 1106 l338 -278 0 -1053 0 -1053 -337 -123 c-186 -68
-344 -125 -350 -128 -10 -3 -13 293 -13 1463 0 1167 3 1465 12 1458 7 -4 165
-132 350 -286z m1235 -2633 c-2 -2 -159 53 -350 123 l-347 127 0 1052 0 1053
348 286 347 286 3 -1462 c1 -804 1 -1464 -1 -1465z"/>
<path d="M1500 700 l0 -502 183 4 c180 3 184 4 224 30 22 15 51 44 64 65 22
35 24 51 27 184 3 114 0 153 -12 182 -13 33 -13 41 0 74 12 29 15 68 12 182
-3 133 -5 149 -27 184 -13 21 -42 50 -64 65 -40 26 -44 27 -224 30 l-183 4 0
-502z m300 200 l0 -100 -50 0 -50 0 0 100 0 100 50 0 50 0 0 -100z m0 -400 l0
-100 -50 0 -50 0 0 100 0 100 50 0 50 0 0 -100z"/>
<path d="M2216 1163 c8 -21 27 -66 41 -100 l25 -63 59 0 59 0 0 -400 0 -400
100 0 100 0 0 400 0 400 59 0 59 0 25 63 c14 34 33 79 41 100 l16 37 -300 0
-300 0 16 -37z"/>
<path d="M3132 1189 c-45 -13 -108 -80 -121 -126 -6 -21 -11 -84 -11 -141 0
-162 16 -187 192 -303 l108 -72 0 -73 0 -74 -50 0 -50 0 0 50 0 50 -101 0
-102 0 5 -83 c5 -98 27 -143 91 -185 38 -25 47 -27 157 -27 110 0 119 2 157
27 71 47 87 86 92 217 6 185 -10 213 -189 331 l-110 73 0 73 0 74 50 0 50 0 0
-50 0 -50 101 0 102 0 -5 83 c-5 98 -27 143 -91 185 -36 24 -50 27 -141 29
-56 1 -116 -2 -134 -8z"/>
</g>
</svg>
